<?xml version="1.0" encoding="UTF-8"?>
<svg xmlns="http://www.w3.org/2000/svg" width="462" height="446" viewBox="0 0 462 446">
  <path d="M 398.00 432.50 L 65.00 432.50 L 53.00 430.50 L 40.00 424.50 L 26.50 412.00 L 20.50 402.00 L 16.50 388.00 L 16.50 47.00 L 23.50 27.00 L 33.00 15.50 L 49.00 5.50 L 60.00 2.50 L 403.00 2.50 L 419.00 7.50 L 435.50 21.00 L 443.50 35.00 L 446.50 45.00 L 446.50 389.00 L 439.50 408.00 L 426.00 422.50 L 410.00 430.50 L 398.00 432.50 Z M 245.50 89.00 L 246.50 85.00 L 242.50 73.00 L 254.50 62.00 L 253.00 60.50 L 239.00 60.50 L 233.50 47.00 L 231.00 45.50 L 224.00 60.50 L 211.00 60.50 L 208.50 62.00 L 220.50 73.00 L 216.50 88.00 L 219.00 89.50 L 230.00 81.50 L 233.00 81.50 L 242.00 88.50 L 245.50 89.00 Z M 173.50 105.00 L 170.50 89.00 L 181.00 81.50 L 181.50 79.00 L 180.00 77.50 L 167.00 77.50 L 163.50 73.00 L 160.00 62.50 L 157.50 63.00 L 153.50 75.00 L 151.00 77.50 L 136.50 78.00 L 137.00 81.50 L 147.50 89.00 L 145.00 105.50 L 148.00 105.50 L 157.00 98.50 L 161.00 98.50 L 170.00 105.50 L 173.50 105.00 Z M 296.50 106.00 L 309.00 97.50 L 320.00 105.50 L 323.00 105.50 L 320.50 89.00 L 331.50 81.00 L 331.00 77.50 L 317.00 77.50 L 314.50 75.00 L 310.00 62.50 L 307.50 63.00 L 303.50 75.00 L 301.00 77.50 L 288.00 77.50 L 286.50 79.00 L 286.50 81.00 L 298.50 91.00 L 294.50 102.00 L 294.50 105.00 L 296.50 106.00 Z M 118.50 160.00 L 114.50 145.00 L 126.50 136.00 L 126.00 132.50 L 112.00 132.50 L 109.50 130.00 L 106.50 119.00 L 103.00 117.50 L 98.50 130.00 L 96.00 132.50 L 81.50 133.00 L 83.00 136.50 L 92.50 144.00 L 90.00 160.50 L 93.00 160.50 L 103.00 152.50 L 116.00 160.50 L 118.50 160.00 Z M 378.50 160.00 L 375.50 144.00 L 386.50 135.00 L 386.00 132.50 L 372.00 132.50 L 369.50 130.00 L 366.50 119.00 L 363.00 117.50 L 358.50 130.00 L 356.00 132.50 L 341.50 133.00 L 341.50 136.00 L 352.50 144.00 L 350.00 160.50 L 364.00 152.50 L 374.00 159.50 L 378.50 160.00 Z M 276.50 280.00 L 281.50 277.00 L 284.50 268.00 L 284.50 212.00 L 282.50 205.00 L 272.50 198.00 L 272.50 177.00 L 270.50 171.00 L 263.50 159.00 L 248.00 147.50 L 232.00 144.50 L 216.00 147.50 L 206.00 153.50 L 195.50 166.00 L 191.50 176.00 L 191.50 197.00 L 190.00 199.50 L 185.00 200.50 L 179.50 207.00 L 179.50 273.00 L 187.00 280.50 L 276.50 280.00 Z M 254.00 199.50 L 210.00 199.50 L 208.50 198.00 L 208.50 184.00 L 211.50 174.00 L 217.00 167.50 L 227.00 162.50 L 237.00 162.50 L 244.00 165.50 L 252.50 174.00 L 254.50 179.00 L 255.50 197.00 L 254.00 199.50 Z M 95.50 239.00 L 96.50 236.00 L 92.50 223.00 L 104.50 212.00 L 103.00 210.50 L 89.00 210.50 L 83.50 197.00 L 81.00 195.50 L 74.00 210.50 L 60.00 210.50 L 58.50 212.00 L 70.50 223.00 L 66.50 238.00 L 71.00 238.50 L 80.00 231.50 L 83.00 231.50 L 92.00 238.50 L 95.50 239.00 Z M 369.50 239.00 L 380.00 231.50 L 383.00 231.50 L 391.00 237.50 L 396.00 238.50 L 396.50 235.00 L 392.50 223.00 L 404.50 213.00 L 403.00 210.50 L 389.00 210.50 L 384.50 198.00 L 382.00 195.50 L 379.50 197.00 L 376.50 208.00 L 374.00 210.50 L 360.00 210.50 L 358.50 213.00 L 370.50 223.00 L 366.50 237.00 L 369.50 239.00 Z M 224.00 265.50 L 201.50 244.00 L 201.50 241.00 L 210.00 232.50 L 212.00 232.50 L 224.00 243.50 L 252.00 216.50 L 262.50 227.00 L 224.00 265.50 Z M 118.50 310.00 L 114.50 295.00 L 126.50 285.00 L 126.00 282.50 L 111.00 281.50 L 106.50 269.00 L 103.00 267.50 L 98.50 280.00 L 96.00 282.50 L 81.50 283.00 L 84.00 287.50 L 92.50 294.00 L 90.00 310.50 L 93.00 310.50 L 103.00 302.50 L 115.00 310.50 L 118.50 310.00 Z M 378.50 310.00 L 375.50 294.00 L 386.50 285.00 L 386.00 282.50 L 372.00 282.50 L 369.50 280.00 L 366.50 269.00 L 363.00 267.50 L 358.50 280.00 L 356.00 282.50 L 341.50 283.00 L 341.50 285.00 L 353.50 295.00 L 349.50 306.00 L 350.00 310.50 L 354.00 309.50 L 363.00 302.50 L 375.00 310.50 L 378.50 310.00 Z M 173.50 365.00 L 170.50 349.00 L 178.00 343.50 L 181.50 338.00 L 166.00 336.50 L 160.00 322.50 L 156.50 324.00 L 152.00 336.50 L 137.00 337.50 L 135.50 339.00 L 147.50 349.00 L 145.00 365.50 L 149.00 364.50 L 158.00 357.50 L 171.00 365.50 L 173.50 365.00 Z M 323.50 365.00 L 320.50 349.00 L 331.50 340.00 L 331.00 337.50 L 316.00 336.50 L 311.50 324.00 L 308.00 322.50 L 302.00 336.50 L 286.50 338.00 L 289.50 343.00 L 297.50 349.00 L 295.00 365.50 L 299.00 364.50 L 308.00 357.50 L 321.00 365.50 L 323.50 365.00 Z M 246.50 388.00 L 242.50 373.00 L 254.50 362.00 L 253.00 360.50 L 239.00 360.50 L 232.00 345.50 L 229.50 347.00 L 224.00 360.50 L 210.00 360.50 L 208.50 362.00 L 220.50 373.00 L 216.50 386.00 L 218.00 388.50 L 232.00 380.50 L 241.00 387.50 L 246.50 388.00 Z " fill="#123294" fill-rule="evenodd"/>
  <path d="M 245.00 89.50 L 233.00 81.50 L 230.00 81.50 L 218.00 89.50 L 216.50 86.00 L 220.50 73.00 L 208.50 63.00 L 211.00 60.50 L 224.00 60.50 L 231.00 45.50 L 233.50 47.00 L 239.00 60.50 L 253.00 60.50 L 254.50 62.00 L 250.00 67.50 L 242.50 73.00 L 246.50 85.00 L 245.00 89.50 Z M 173.00 105.50 L 170.00 105.50 L 161.00 98.50 L 157.00 98.50 L 148.00 105.50 L 145.00 105.50 L 144.50 101.00 L 147.50 94.00 L 147.50 89.00 L 138.00 82.50 L 136.50 78.00 L 151.00 77.50 L 153.50 75.00 L 158.00 62.50 L 160.50 63.00 L 163.50 73.00 L 167.00 77.50 L 180.00 77.50 L 181.50 81.00 L 170.50 89.00 L 170.50 94.00 L 173.50 101.00 L 173.00 105.50 Z M 296.00 106.50 L 294.50 102.00 L 298.50 91.00 L 296.00 87.50 L 287.00 81.50 L 286.50 79.00 L 288.00 77.50 L 301.00 77.50 L 303.50 75.00 L 307.50 63.00 L 310.00 62.50 L 314.50 75.00 L 317.00 77.50 L 331.00 77.50 L 331.50 81.00 L 320.50 89.00 L 320.50 94.00 L 323.50 101.00 L 323.00 105.50 L 320.00 105.50 L 309.00 97.50 L 296.00 106.50 Z M 118.00 160.50 L 114.00 159.50 L 104.00 152.50 L 93.00 160.50 L 90.00 160.50 L 89.50 156.00 L 92.50 149.00 L 92.50 144.00 L 85.00 138.50 L 81.50 135.00 L 81.50 133.00 L 96.00 132.50 L 98.50 130.00 L 103.00 117.50 L 106.50 119.00 L 109.50 130.00 L 112.00 132.50 L 126.00 132.50 L 126.50 136.00 L 114.50 145.00 L 118.50 156.00 L 118.00 160.50 Z M 378.00 160.50 L 374.00 159.50 L 364.00 152.50 L 354.00 159.50 L 350.00 160.50 L 349.50 156.00 L 352.50 144.00 L 342.00 136.50 L 341.50 133.00 L 356.00 132.50 L 358.50 130.00 L 363.00 117.50 L 366.50 119.00 L 369.50 130.00 L 372.00 132.50 L 386.00 132.50 L 386.50 135.00 L 375.50 144.00 L 375.50 149.00 L 378.50 156.00 L 378.00 160.50 Z M 276.00 280.50 L 187.00 280.50 L 179.50 273.00 L 179.50 207.00 L 185.00 200.50 L 190.00 199.50 L 191.50 197.00 L 191.50 176.00 L 195.50 166.00 L 206.00 153.50 L 216.00 147.50 L 226.00 144.50 L 233.00 144.50 L 248.00 147.50 L 258.00 153.50 L 263.50 159.00 L 270.50 171.00 L 272.50 177.00 L 272.50 198.00 L 278.00 200.50 L 282.50 205.00 L 284.50 212.00 L 284.50 268.00 L 281.50 277.00 L 276.00 280.50 Z M 254.50 199.00 L 254.50 179.00 L 252.50 174.00 L 244.00 165.50 L 237.00 162.50 L 227.00 162.50 L 217.00 167.50 L 211.50 174.00 L 208.50 184.00 L 208.50 198.00 L 210.00 199.50 L 254.50 199.00 Z M 95.00 239.50 L 83.00 231.50 L 80.00 231.50 L 71.00 238.50 L 67.00 238.50 L 66.50 236.00 L 70.50 223.00 L 58.50 213.00 L 60.00 210.50 L 74.00 210.50 L 81.00 195.50 L 83.50 197.00 L 89.00 210.50 L 103.00 210.50 L 104.50 212.00 L 92.50 223.00 L 96.50 236.00 L 95.00 239.50 Z M 369.00 239.50 L 366.50 237.00 L 370.50 223.00 L 358.50 213.00 L 360.00 210.50 L 374.00 210.50 L 376.50 208.00 L 379.50 197.00 L 382.00 195.50 L 384.50 198.00 L 385.50 204.00 L 389.00 210.50 L 403.00 210.50 L 404.50 213.00 L 392.50 223.00 L 396.50 235.00 L 396.00 238.50 L 393.00 238.50 L 385.00 232.50 L 380.00 231.50 L 369.00 239.50 Z M 224.50 265.00 L 262.50 227.00 L 252.00 216.50 L 224.00 243.50 L 212.00 232.50 L 210.00 232.50 L 201.50 241.00 L 201.50 244.00 L 222.00 264.50 L 224.50 265.00 Z M 118.00 310.50 L 115.00 310.50 L 105.00 302.50 L 103.00 302.50 L 93.00 310.50 L 90.00 310.50 L 89.50 306.00 L 92.50 299.00 L 92.50 294.00 L 85.00 288.50 L 81.50 285.00 L 81.50 283.00 L 96.00 282.50 L 98.50 280.00 L 103.00 267.50 L 106.50 269.00 L 111.00 281.50 L 126.00 282.50 L 126.50 285.00 L 114.50 295.00 L 118.50 306.00 L 118.00 310.50 Z M 378.00 310.50 L 375.00 310.50 L 365.00 302.50 L 350.00 310.50 L 349.50 306.00 L 353.50 295.00 L 345.00 288.50 L 341.50 285.00 L 341.50 283.00 L 356.00 282.50 L 358.50 280.00 L 363.00 267.50 L 366.50 269.00 L 369.50 280.00 L 372.00 282.50 L 386.00 282.50 L 386.50 285.00 L 375.50 294.00 L 378.50 306.00 L 378.00 310.50 Z M 173.00 365.50 L 169.00 364.50 L 160.00 357.50 L 145.00 365.50 L 144.50 361.00 L 147.50 349.00 L 135.50 339.00 L 137.00 337.50 L 152.00 336.50 L 156.50 324.00 L 160.00 322.50 L 166.00 336.50 L 181.50 338.00 L 181.50 340.00 L 170.50 349.00 L 170.50 354.00 L 173.50 361.00 L 173.00 365.50 Z M 323.00 365.50 L 319.00 364.50 L 310.00 357.50 L 295.00 365.50 L 294.50 361.00 L 297.50 354.00 L 297.50 349.00 L 290.00 343.50 L 286.50 340.00 L 286.50 338.00 L 291.00 336.50 L 302.00 336.50 L 308.00 322.50 L 311.50 324.00 L 316.00 336.50 L 331.00 337.50 L 331.50 340.00 L 320.50 349.00 L 321.50 357.00 L 323.50 360.00 L 323.00 365.50 Z M 246.00 388.50 L 241.00 387.50 L 232.00 380.50 L 222.00 387.50 L 218.00 388.50 L 216.50 386.00 L 220.50 373.00 L 208.50 362.00 L 210.00 360.50 L 224.00 360.50 L 229.50 347.00 L 232.00 345.50 L 239.00 360.50 L 253.00 360.50 L 254.50 362.00 L 242.50 373.00 L 246.50 385.00 L 246.00 388.50 Z " fill="#F1CD48" fill-rule="evenodd"/>
</svg>
