<svg width="400" height="122" viewBox="0 0 400 122" fill="none" xmlns="http://www.w3.org/2000/svg">
<path d="M121.766 0V69.6924L86.9865 34.8462H69.559L121.766 87.1538V122H0V52.3076L52.207 104.539V87.1538L0 34.8462V0H121.766ZM191.324 0V34.8462L200.038 43.5769L208.676 34.8462V0H260.883V34.8462L243.455 52.3076H260.883V122H208.676V69.6924L200.038 60.9617L191.324 69.6924V122H139.193V0H191.324ZM295.662 0L313.014 17.4614V52.3076L321.728 60.9617L330.441 52.3076V17.4614L313.014 0H365.221L347.793 17.4614V52.3076L356.506 60.9617L365.221 52.3076V17.4614L382.572 0H400V122H347.793V87.1538L339.155 78.4231L330.441 87.1538V122H278.31V0H295.662Z" fill="black"/>
</svg>
