<svg width="300" height="296" viewBox="0 0 300 296" fill="none" xmlns="http://www.w3.org/2000/svg">
<path d="M77.8426 144.506H0L4 96.4064L42.3488 104.978V78.0906L4 86.6621L0 0H77.8426V48.3068L35.3414 39.7354V66.4152L77.8426 57.8438V144.506Z" fill="black"/>
<path d="M157.811 72.1493L171 144.506H133.815L123.475 108.431V144.506H86.134V0L123.475 0V35.8673L133.815 0H171L157.811 72.1493Z" fill="black"/>
<path d="M268.949 96.199L264.11 0H299.604L295.604 37L299.604 144.506H179.26L183.26 37.5L179.26 0H214.601L209.763 96.199H226.6L221.761 0H257.103L252.264 96.199H268.949Z" fill="black"/>
<path d="M71.9212 223.643L88 296H47.9245L37.5854 259.925V296H0.243978V151.494H37.5854V187.361L47.9245 151.494H88L71.9212 223.643Z" fill="black"/>
<path d="M161.884 192.195L157.045 151.494H209.763V296H157.045L161.884 255.506H145.199L150.038 296H96V151.494H150.038L145.199 192.195H161.884Z" fill="black"/>
<path d="M300 296H218L222.157 247.9L264.506 256.472V229.585L222.157 238.156L218 151.494H300V199.801L257.499 191.23V217.909L300 209.338V296Z" fill="black"/>
</svg>
