<svg width="300" height="289" viewBox="0 0 300 289" fill="none" xmlns="http://www.w3.org/2000/svg">
<path d="M300 289H0V0H300V289ZM11.9727 276.499H47.9961V223.842L54.0088 215.053L59.9688 223.842V276.499H95.9912V206.341H83.9658L95.9912 188.763V149.684H59.9688V188.763L54.0088 197.552L47.9961 188.763V149.684H11.9727V276.499ZM108.017 276.499H143.987V241.42L150 232.631L155.96 241.42V276.499H191.983V149.684H155.96V188.763L150 197.552L143.987 188.763V149.684H108.017V276.499ZM204.009 188.839L239.979 241.42V258.921L204.009 206.417V276.499H287.975V241.42L251.951 188.763H263.977L287.975 223.842V149.684H204.009V188.839ZM11.9727 46.6572L47.9961 99.3145V116.815L11.9727 64.2354V138.394H95.9912V99.3145L59.9688 46.6572H71.9941L95.9912 81.7363V11.5781H11.9727V46.6572ZM108.017 138.394H143.987V81.7363L150 72.9473L155.96 81.7363V138.394H191.983V64.2354H179.958L191.983 46.6572V11.5781H155.96V46.6572L150 55.4463L143.987 46.6572V11.5781H108.017V138.394ZM204.009 138.394H239.979V99.3145L245.991 90.5254L251.951 99.3145V138.394H287.975V11.5781H275.949L263.977 29.1562V64.2354L257.964 72.9473L251.951 64.2354V29.1562L263.977 11.5781H227.953L239.979 29.1562V64.2354L233.966 72.9473L227.953 64.2354V29.1562L215.981 11.5781H204.009V138.394Z" fill="black"/>
</svg>
