<svg width="481" height="271" viewBox="0 0 481 271" fill="none" xmlns="http://www.w3.org/2000/svg">
<path d="M124.808 130.537H0V87.0871L67.8992 94.8299V70.5419L0 78.2847V0H124.808V43.6372L56.6641 35.8943V59.9951L124.808 52.2522V130.537Z" fill="black"/>
<path d="M253.024 65.1748L277.075 130.537H214.549L194.766 97.9495V130.537H138.102V0H194.766V32.4001L214.549 0H277.075L253.024 65.1748Z" fill="black"/>
<path d="M431.214 86.8998L423.456 0H480.365V130.537H287.414V0H344.078L336.32 86.8998H363.315L355.557 0H412.221L404.463 86.8998H431.214Z" fill="black"/>
<path d="M115.314 205.638L139.365 271H76.8389L57.0553 238.413V271H0.391178V140.463H57.0553V172.863L76.8389 140.463H139.365L115.314 205.638Z" fill="black"/>
<path d="M259.554 177.23L251.796 140.463H308.705V271H251.796L259.554 234.421H232.803L240.561 271H183.897V140.463H240.561L232.803 177.23H259.554Z" fill="black"/>
<path d="M481 271H356.192V227.55L424.092 235.293V211.005L356.192 218.748V140.463H481V184.1L412.857 176.357V200.458L481 192.715V271Z" fill="black"/>
</svg>
