<svg width="300" height="300" viewBox="0 0 300 300" fill="none" xmlns="http://www.w3.org/2000/svg">
<path d="M300 300H0V0H300V300ZM11.9727 287.023H47.9961V232.361L54.0088 223.238L59.9688 232.361V287.023H95.9912V214.194H83.9658L95.9912 195.947V155.381H59.9688V195.947L54.0088 205.071L47.9961 195.947V155.381H11.9727V287.023ZM108.017 287.023H143.987V250.608L150 241.485L155.96 250.608V287.023H191.983V155.381H155.96V195.947L150 205.071L143.987 195.947V155.381H108.017V287.023ZM204.009 196.026L239.979 250.608V268.776L204.009 214.273V287.023H287.975V250.608L251.951 195.947H263.977L287.975 232.361V155.381H204.009V196.026ZM11.9727 48.4336L47.9961 103.095V121.262L11.9727 66.6807V143.661H95.9912V103.095L59.9688 48.4336H71.9941L95.9912 84.8477V12.0186H11.9727V48.4336ZM108.017 143.661H143.987V84.8477L150 75.7236L155.96 84.8477V143.661H191.983V66.6807H179.958L191.983 48.4336V12.0186H155.96V48.4336L150 57.5566L143.987 48.4336V12.0186H108.017V143.661ZM204.009 143.661H239.979V103.095L245.991 93.9707L251.951 103.095V143.661H287.975V12.0186H275.949L263.977 30.2656V66.6807L257.964 75.7236L251.951 66.6807V30.2656L263.977 12.0186H227.953L239.979 30.2656V66.6807L233.966 75.7236L227.953 66.6807V30.2656L215.981 12.0186H204.009V143.661Z" fill="black"/>
</svg>
