<svg width="1479" height="148" viewBox="0 0 1479 148" fill="none" xmlns="http://www.w3.org/2000/svg">
<path d="M44.9313 41.5C44.9313 44.5067 46.0246 46.8983 48.2113 48.675C50.5346 50.315 53.6096 51.6817 57.4363 52.775C61.2629 53.8683 65.4996 54.825 70.1463 55.645C74.9296 56.465 79.8496 57.4217 84.9063 58.515C89.9629 59.6083 94.8146 61.1117 99.4613 63.025C104.245 64.9383 108.55 67.4667 112.376 70.61C116.203 73.6167 119.21 77.58 121.396 82.5C123.72 87.2833 124.881 93.2283 124.881 100.335C124.881 110.312 122.285 118.853 117.091 125.96C112.035 133.067 104.996 138.533 95.9763 142.36C86.9563 146.05 76.7063 147.895 65.2263 147.895C53.6096 147.895 43.1546 146.118 33.8613 142.565C24.7046 138.875 17.1879 133.34 11.3113 125.96C5.57127 118.443 2.01794 109.013 0.65127 97.67H44.7263C45.4096 103.547 47.5963 108.125 51.2863 111.405C55.1129 114.548 59.8963 116.12 65.6363 116.12C71.1029 116.12 75.2029 115.232 77.9363 113.455C80.6696 111.542 82.0363 108.877 82.0363 105.46C82.0363 102.453 80.8746 100.062 78.5513 98.285C76.3646 96.3717 73.3579 94.8683 69.5313 93.775C65.7046 92.545 61.3996 91.4517 56.6163 90.495C51.9696 89.4017 47.1179 88.24 42.0613 87.01C37.0046 85.78 32.0846 84.2083 27.3013 82.295C22.6546 80.3817 18.4179 77.9217 14.5913 74.915C10.7646 71.7717 7.6896 67.8767 5.36627 63.23C3.1796 58.4467 2.08627 52.7067 2.08627 46.01C2.08627 37.4 4.34127 29.6783 8.85127 22.845C13.3613 16.0117 19.9213 10.6133 28.5313 6.65C37.1413 2.68666 47.5279 0.704988 59.6913 0.704988C69.8046 0.704988 79.2346 2.41332 87.9813 5.82999C96.8646 9.10999 104.245 14.3033 110.121 21.41C115.998 28.38 119.551 37.5367 120.781 48.88H76.0913C75.1346 43.4133 73.1529 39.3133 70.1463 36.58C67.2763 33.8467 63.1763 32.48 57.8463 32.48C54.0196 32.48 50.8763 33.3 48.4163 34.94C46.0929 36.58 44.9313 38.7667 44.9313 41.5ZM144.626 144L144.626 18.2H182.366V144H144.626ZM108.181 48.725V18.2L218.811 18.2V48.725L108.181 48.725ZM229.796 124.575V96.27H286.221V124.575H229.796ZM285.481 144L262.171 71.48L256.621 49.28H259.951L254.401 71.48L230.906 144H192.796L236.641 18.2L281.966 18.2L325.811 144H285.481ZM428.803 61.12L389.398 61.12C388.041 55.8167 385.698 51.87 382.368 49.28C379.161 46.5667 374.968 45.21 369.788 45.21C364.731 45.21 360.415 46.69 356.838 49.65C353.261 52.4867 350.548 56.6183 348.698 62.045C346.848 67.3483 345.923 73.7617 345.923 81.285C345.923 88.8083 346.848 95.2217 348.698 100.525C350.548 105.828 353.2 109.898 356.653 112.735C360.23 115.572 364.608 116.99 369.788 116.99C374.598 116.99 378.668 115.757 381.998 113.29C385.451 110.7 387.795 107 389.028 102.19H428.803C426.83 112.18 423.068 120.567 417.518 127.35C411.968 134.01 405.185 139.067 397.168 142.52C389.151 145.85 380.333 147.515 370.713 147.515C357.64 147.515 346.355 144.863 336.858 139.56C327.361 134.133 320.023 126.487 314.843 116.62C309.786 106.753 307.258 94.975 307.258 81.285C307.258 67.595 309.786 55.755 314.843 45.765C320.023 35.775 327.361 28.1283 336.858 22.825C346.355 17.3983 357.64 14.685 370.713 14.685C380.333 14.685 389.213 16.4117 397.353 19.865C405.616 23.3183 412.523 28.4983 418.073 35.405C423.623 42.1883 427.2 50.76 428.803 61.12ZM425.109 144V18.2H462.849V144H425.109ZM457.854 82.95L501.884 18.2H543.879L497.999 82.95H457.854ZM457.854 82.95L496.889 75.365L547.764 144H501.884L457.854 82.95ZM648.568 144L632.288 84.615L627.663 62.415H630.623L625.998 84.615L609.903 144H568.463L532.943 18.2L573.273 18.2L587.333 90.72L592.143 114.77H589.923L595.103 90.72L614.898 18.2H645.608L665.218 90.72L670.398 114.77H668.178L672.988 90.72L687.233 18.2H725.343L689.823 144H648.568ZM719.714 144V18.2H757.454V144H719.714ZM747.464 144V114.4H813.139V144H747.464ZM747.464 47.8V18.2H813.139V47.8H747.464ZM747.464 94.42V65.745H805.739V94.42H747.464ZM812.185 144V18.2L849.925 18.2V144H812.185ZM871.015 94.79H839.935V72.59H865.835C870.645 72.59 874.037 71.4183 876.01 69.075C877.983 66.7317 878.97 63.7717 878.97 60.195C878.97 56.495 877.983 53.535 876.01 51.315C874.16 48.9717 871.077 47.8 866.76 47.8H839.935V18.2H867.5C883.163 18.2 895.435 21.7767 904.315 28.93C913.195 36.0833 917.635 45.765 917.635 57.975C917.635 70.555 913.442 79.8667 905.055 85.91C896.792 91.83 885.445 94.79 871.015 94.79ZM883.225 144L876.75 111.81C876.257 108.973 875.578 106.815 874.715 105.335C873.852 103.732 872.68 102.683 871.2 102.19C869.72 101.573 867.623 101.265 864.91 101.265H845.855V78.14H870.09C878.6 78.14 885.753 79.065 891.55 80.915C897.347 82.6417 901.972 85.4783 905.425 89.425C909.002 93.2483 911.53 98.4283 913.01 104.965L922.26 144L883.225 144ZM918.567 144V18.2H956.307V144H918.567ZM951.312 82.95L995.342 18.2H1037.34L991.457 82.95H951.312ZM951.312 82.95L990.347 75.365L1041.22 144H995.342L951.312 82.95ZM1033.8 144V18.2H1071.54V144H1033.8ZM1110.58 144V18.2H1148.32V144H1110.58ZM1061.55 95.16V64.635H1117.98V95.16H1061.55ZM1177.87 124.575V96.27H1234.3V124.575H1177.87ZM1233.56 144L1210.25 71.48L1204.7 49.28H1208.03L1202.48 71.48L1178.98 144L1140.87 144L1184.72 18.2H1230.04L1273.89 144H1233.56ZM1371.12 96.085C1371.12 106.692 1368.84 115.88 1364.28 123.65C1359.71 131.297 1353.24 137.217 1344.85 141.41C1336.59 145.48 1326.66 147.515 1315.07 147.515C1303.47 147.515 1293.48 145.48 1285.1 141.41C1276.71 137.217 1270.23 131.297 1265.67 123.65C1261.23 115.88 1259.01 106.692 1259.01 96.085V18.2H1296.75V96.085C1296.75 102.622 1298.35 107.74 1301.56 111.44C1304.77 115.14 1309.27 116.99 1315.07 116.99C1320.99 116.99 1325.49 115.14 1328.57 111.44C1331.78 107.74 1333.38 102.622 1333.38 96.085V18.2H1371.12V96.085ZM1406.51 51.5C1406.51 54.2133 1407.5 56.3717 1409.47 57.975C1411.57 59.455 1414.34 60.6883 1417.79 61.675C1421.25 62.6617 1425.07 63.525 1429.26 64.265C1433.58 65.005 1438.02 65.8683 1442.58 66.855C1447.15 67.8417 1451.53 69.1983 1455.72 70.925C1460.04 72.6517 1463.92 74.9333 1467.37 77.77C1470.83 80.4833 1473.54 84.06 1475.51 88.5C1477.61 92.8167 1478.66 98.1817 1478.66 104.595C1478.66 113.598 1476.32 121.307 1471.63 127.72C1467.07 134.133 1460.71 139.067 1452.57 142.52C1444.43 145.85 1435.18 147.515 1424.82 147.515C1414.34 147.515 1404.91 145.912 1396.52 142.705C1388.26 139.375 1381.47 134.38 1376.17 127.72C1370.99 120.937 1367.78 112.427 1366.55 102.19H1406.32C1406.94 107.493 1408.91 111.625 1412.24 114.585C1415.7 117.422 1420.01 118.84 1425.19 118.84C1430.13 118.84 1433.83 118.038 1436.29 116.435C1438.76 114.708 1439.99 112.303 1439.99 109.22C1439.99 106.507 1438.95 104.348 1436.85 102.745C1434.88 101.018 1432.16 99.6617 1428.71 98.675C1425.26 97.565 1421.37 96.5783 1417.05 95.715C1412.86 94.7283 1408.48 93.68 1403.92 92.57C1399.36 91.46 1394.92 90.0417 1390.6 88.315C1386.41 86.5883 1382.58 84.3683 1379.13 81.655C1375.68 78.8183 1372.9 75.3033 1370.8 71.11C1368.83 66.7933 1367.84 61.6133 1367.84 55.57C1367.84 47.8 1369.88 40.8317 1373.95 34.665C1378.02 28.4983 1383.94 23.6267 1391.71 20.05C1399.48 16.4733 1408.85 14.685 1419.83 14.685C1428.96 14.685 1437.47 16.2267 1445.36 19.31C1453.38 22.27 1460.04 26.9567 1465.34 33.37C1470.64 39.66 1473.85 47.9233 1474.96 58.16H1434.63C1433.77 53.2267 1431.98 49.5267 1429.26 47.06C1426.67 44.5933 1422.97 43.36 1418.16 43.36C1414.71 43.36 1411.87 44.1 1409.65 45.58C1407.56 47.06 1406.51 49.0333 1406.51 51.5Z" fill="white"/>
</svg>
